# xmcd CD database file
#
# Track frame offsets:
#	150
#	21900
#	41520
#	58235
#	75340
#	96185
#	114975
#	134410
#	151970
#	172227
#
# Disc length: 2541 seconds
#
# Revision: 4
# Processed by: cddbd v1.5.2PL0 Copyright (c) Steve Scherf et al.
# Submitted via: CDex 1.51
#
DISCID=7e09eb0a
DTITLE=John Lennon - Menlove Ave.
DYEAR=2000
DGENRE=Rock
TTITLE0=Here We Go Again
TTITLE1=Rock 'N' Roll People
TTITLE2=Angel Baby
TTITLE3=Since My Baby Left Me
TTITLE4=To Know Her Is To Love Her
TTITLE5=Steel And Glass
TTITLE6=Scared
TTITLE7=Old Dirt Road
TTITLE8=Nobody Loves You (When You're Down And Out)
TTITLE9=Bless You
EXTD=Capitol CDP 7 46576 2\n1986 Capitol Records, Inc.\n\n\n\n\n\n\n\n\n\n\n\nsh10 April 1995 YEAR: 2000
EXTT0=
EXTT1=
EXTT2=
EXTT3=
EXTT4=
EXTT5=
EXTT6=
EXTT7=
EXTT8=
EXTT9=
PLAYORDER=
